<?xml version="1.0" encoding="UTF-8"?>
<svg id="Livello_1" data-name="Livello 1" xmlns="http://www.w3.org/2000/svg" viewBox="0 0 254.1 164.6">
  <defs>
    <style>
      .cls-1 {
        stroke: #339985;
        stroke-miterlimit: 10;
        stroke-width: .6px;
      }

      .cls-1, .cls-2 {
        fill: #339985;
      }

      .cls-2 {
        stroke-width: 0px;
      }
    </style>
  </defs>
  <polygon class="cls-2" points="127.5 53.5 127.5 53.5 127.5 53.5 127.5 53.5"/>
  <polygon class="cls-2" points="96.8 36.6 96.8 36.6 96.8 36.6 96.8 36.6"/>
  <g>
    <path class="cls-2" d="m141.4,72.2c.4,0,8.8,0,9-.2s0,0,0,0c2.3-2.2,3.5-3.6,4.1-4.1s.2-.2.3-.4c1.8-3.7,2.9-9.3,3.9-14.1.6-3,1.2-5.9,1.9-7.8.1-.8,1.4-1.6,5-3.4.5-.3,1.1-.6,1.5-.8s.4-.3.5-.5c.5-.9.6-1.6.3-2-.3-.5-1.1-.8-2.4-.9-3.9-.2-10.3,1.8-12.9,3.7s-.4.4-.5.7l-1.1,5.2-.9,4.1-.3,1.3v.4c0,0,0,0-.1.1h0c-1.3,7.3-3.6,8.7-5.3,8.7s-4.4-3.4-4.9-7.5c0-.7-.7-.9-1.4-.9s-3.9-.4-4-.4c-.4,0-.5,7.4.2,10.7,1.6,7.8,6.8,8.3,7.1,8.3Z"/>
    <path class="cls-2" d="m117.3,81.9c-.4.3-1,.8-1.6,1.3,0,0-.1,0-.2.1-4.4,3.2-11.9,1.7-16.9,1.6-5.4-.1-7,4.3-10.5,8.3-1.4,1.6-.6,2.2,1.1,1.1,1.7-1.1,7.7-3.6,10.8-3.4s15,2.1,23.3-2.9c-2.2-2.1-5.5-4.1-6.1-6Z"/>
    <path class="cls-2" d="m135,80.5c.5.4,1,.8,1.7,1.4,0,0,.1,0,.2.1,4.6,3.5,11.9,1.5,17,1.1,5.4-.4,7.2,4.6,10.9,9,1.4,1.7.7,2.5-1.1,1.3-1.7-1.2-7.8-3.8-11-3.4s-14.9,3-23.5-2.3c2.1-2.4,5.3-4.9,5.8-7.1Z"/>
    <path class="cls-2" d="m178.1,80.2c0,.8-1.2,1.2-3.1,1.1h0c-.1,0-.3,0-.4,0-2.5-.3-5.9-.9-8.7-1.4-2.4-.4-4.2-.7-4.8-.8,0,0-.1,0-.2,0h0c-4.4,1.1-9.2,1.5-13.1,1.4-5.4-.3-11.7-1.9-12.3-8.3,2.6,2.7,6,3.2,8.4,3.3,1.8,0,3.5,0,5.3-.1h.8c2.4-.2,7.8-7.4,8.5-7.9.1,0,.3,0,.4,0,4,.2,10,5.4,13.9,8.5.6.5,1.2,1,1.8,1.4h0c0,0,.1,0,.1,0,1.8.1,3.5,1.6,3.4,2.7Z"/>
    <polygon class="cls-2" points="117.9 82.6 117.9 82.6 117.9 82.6 117.9 82.6"/>
    <path class="cls-2" d="m122.9,53.3s-.1,4,0,6.2c0,2.1,0,4.7-.6,7.7h0s0,0,0,0c-.1.4-.3.8-.4,1.2-1.1,3.4-2.3,6.9-.8,10.4,1,1.4,3.7,4.9,5.4,6.1,2.5-1.2,3.2-1.7,3.4-1.9h0s0-.2,0-.2c2.9-4,3.4-6.2,2.4-10.8-1.2-4-1.5-14.9-1.5-18.6-1.3-.2-7.8-.2-7.8-.2Z"/>
    <path class="cls-2" d="m87.8,62h0c3,4.1,4.9,5.4,6,5.5s4.3-1.9,5.3-2.3,4.1-.1,6.1,0c1.3,0,3.1.6,4.4-.2s.8-3.6,1.2-5.6c.6-2.9.6-5.3.9-6.6-1.4.7-2.6,2.3-3.7,3.9-1.8,2.4-3.6,4.9-6.3,4.7s-3.9-1.5-6.1-4.3h0s0,0,0,0c-1.1-2-1.2-4-1.3-6.1-.2-3.7-.4-7.9-5.3-13.8l-.2-.3c-.8-.4-3.4-1-6.4-1.1h0c-3.2-.2-5.6.2-6.2,1.1,0,0-.3.4,0,1,1.3.7,7.6,4.2,8.6,4.8l.5.5c1.2,3.9,1.7,9.4,2.1,13.5.2,2.3.4,4.8.7,5.4h0Z"/>
    <path class="cls-2" d="m97.2,38.5c-.3,0-.6,0-.9,0-.9,0-1.4,1-.9,1.8,1.2,1.9,2.3,3.8,3.2,5.7h0s0,0,0,0c.1.2.2.6.6,7.2,0,.8.1,1.6.2,2.2s.3.7.6.9l1.3.7c.3.2.6.3.8.5.5.3,1.1.1,1.5-.3,3.6-4.6,3.2-6.2,2.2-11.1-.2-.8-.3-1.6-.5-2.6s-.2-.5-.4-.7c-.5-.4-.9-.8-1.3-1.1-2.4-1.9-3.8-3.1-6.2-3.3h0Z"/>
    <path class="cls-2" d="m170.1,60.9c-.3-.8-.8-1.6-1.4-2.2,0,0,0,0,0,0-3.8-.8-5.6-1.2-8.4.4-.2,1.3-.5,2.5-.9,3.7-.2.6-.3,1.2-.5,1.9,0,0,0,.2,0,.2.2.1.4.2.6.2.6,0,1.4,0,2.2.2,6.6.5,6.9.5,7.2.6h0s0,0,0,0c1,.5,2,1.3,3.1,1.6s-1.2-5.1-1.9-6.6Z"/>
    <path class="cls-2" d="m119.7,53.3c-.2-.3-.3-.3-.4-.3s-3.5-.1-3.9-.1c-.1.7-.6,2.7-1,4.8-1.3,6.2-1.9,9.2-2,9.7-.1.9-1.7,1.2-5.6,1s-2.5-.2-3.6-.3c-.9,0-1.6-.1-2.2-.2s-.9,0-.9,0h-.4c-1.1.6-2.4,1.6-4.4,3.3h0c-2.2,1.9-3.8,3.6-5,4.9-.9,1-1.5,1.6-1.8,1.8-.2.1-.6.3-1.1.4-.9.3-3,1.1-3.2,1.7,0,0,0,.1.1.2.3.1.7.2,1.2.2h0c1.7.1,4.4-.3,7.1-.6,2.7-.4,5.3-.7,7-.6s1.1.1,1.4.3c2.2.7,4.5,1.2,6.6,1.3,2.9.2,5.7-.2,8.1-1.2h0s0,0,0,0c.6-.2,1-.4,1.1-.6.1-.3,0-.8-.3-1.3-2-2.9,4.7-21.6,3.1-24.4Z"/>
  </g>
  <g>
    <path class="cls-2" d="m113.8,29.7c.2-.2.3-.5.5-.7-.2.2-.4.4-.5.7Z"/>
    <path class="cls-2" d="m113.7,29.9s0,0,0-.1c0,0,0,0,0,.1Z"/>
    <path class="cls-2" d="m117.7,37.4c-.4,0-.8-.1-1.2-.2.4.1.8.2,1.2.2.9,0,1.7-.1,2.4-.5-.7.3-1.5.5-2.4.5Z"/>
    <path class="cls-2" d="m119.8,27.8c1.9.8,3.2,2.7,3.1,4.9,0,.4-.1.8-.2,1.2.1-.4.2-.8.2-1.2.1-2.2-1.2-4.1-3.1-4.9Z"/>
    <path class="cls-2" d="m144.3,26.5c1.3.3.4-2.9.4-2.9l-32.3-2.3v.4c-.1,0-8.7,25.6.5,28.5t0,0c.1,0,.2,0,.4.1.1,0,.3,0,.4,0,.4,0,.8,0,1.3,0h0c.2-.2,22.4-.3,27.6-.7,3.9-1.1,3.8-9.9,3.8-13.9-7.5,3.9-10.6-9.5-2.1-9.3Zm-21.4,6.2c0,.4-.1.8-.2,1.2-.4,1.3-1.4,2.4-2.6,3-.7.3-1.5.5-2.4.5-.4,0-.8-.1-1.2-.2-2.1-.7-3.6-2.7-3.5-5,0-.8.3-1.6.7-2.2,0,0,0,0,0-.1,0,0,0,0,0,0,.2-.2.3-.5.5-.7,1-1.1,2.4-1.7,3.9-1.6.6,0,1.1.2,1.6.4,1.9.8,3.2,2.7,3.1,4.9Z"/>
  </g>
  <circle class="cls-2" cx="117.8" cy="32.6" r="2.5"/>
  <circle class="cls-2" cx="144.1" cy="31.5" r="2.1"/>
  <g>
    <path class="cls-2" d="m36.4,126.2h-3.6v-25h3.6v10l3.2-10h3.9l-4.2,12.5,4.2,12.5h-3.9l-3.2-10.3v10.3Z"/>
    <path class="cls-2" d="m52.3,101.1c1.8,0,2.6,1.1,2.6,3.2v8.9c0,.9-.2,1.5-.6,1.8-.4.4-.9.6-1.6.6l2.8,10.4h-3.8l-2.6-9.8v-5.2h2.1v-5.4h-3v20.4h-3.6v-25h7.6Z"/>
    <path class="cls-2" d="m64.6,126.2l-2.2-13.8-2.2,13.8h-3.9l4.2-25h3.8l4.2,25h-3.9Z"/>
    <path class="cls-2" d="m73.5,126.2h-3.6v-25h3.6v10l3.2-10h3.9l-4.2,12.5,4.2,12.5h-3.9l-3.2-10.3v10.3Z"/>
    <path class="cls-2" d="m81.9,101.1h8.7v4.6h-5v5.4h4.2v4.6h-4.2v5.8h5v4.6h-8.7v-25Z"/>
    <path class="cls-2" d="m99.3,126.2l-3.6-10.9v10.9h-3.6v-25h3l3.6,12.1v-12.1h3.6v25h-3Z"/>
    <path class="cls-2" d="m117.7,126.2h-7.6v-25h7.6c1.8,0,2.6,1.1,2.6,3.2v18.6c0,2.1-.9,3.2-2.6,3.2Zm-3.9-20.4v15.8h3v-15.8h-3Z"/>
    <path class="cls-2" d="m129.5,101.1c1.8,0,2.6,1.1,2.6,3.2v8.9c0,.9-.2,1.5-.6,1.8-.4.4-.9.6-1.6.6l2.8,10.4h-3.8l-2.6-9.8v-5.2h2.1v-5.4h-3v20.4h-3.6v-25h7.6Z"/>
    <path class="cls-2" d="m133.8,101.1h8.7v4.6h-5v5.4h4.2v4.6h-4.2v5.8h5v4.6h-8.7v-25Z"/>
    <path class="cls-2" d="m152.1,126.2l-2.2-13.8-2.2,13.8h-3.9l4.2-25h3.8l4.2,25h-3.9Z"/>
    <path class="cls-2" d="m160.7,101.1l2.8,9.2,2.9-9.2h3.2v25h-3.6v-13l-2.5,7.7-2.6-7.7v13h-3.6v-25h3.3Z"/>
    <path class="cls-2" d="m181.1,101.1v20.4h4.8v4.6h-8.4v-25h3.6Z"/>
    <path class="cls-2" d="m195.6,126.2l-2.2-13.8-2.2,13.8h-3.9l4.2-25h3.8l4.2,25h-3.9Z"/>
    <path class="cls-2" d="m208.4,126.2h-7.6v-25h7.6c1.8,0,2.6,1.1,2.6,3.2v6.4c0,.7-.1,1.3-.4,1.7-.2.5-.6.8-1,1,.9.4,1.4,1.4,1.4,2.9v6.6c0,2.1-.9,3.2-2.6,3.2Zm-3.1-10.4v-4.6h2.1v-5.4h-3v15.8h3v-5.8h-2.1Z"/>
    <path class="cls-2" d="m221.3,120.7c0,.3,0,.6,0,.8v1.5c0,2.1-.9,3.2-2.6,3.2h-6.1v-4.6h4.9l-4.7-14.3c0-.2,0-.4-.1-.7,0-.3,0-.6,0-.8v-1.7c0-1.1.2-1.8.7-2.3.5-.5,1.1-.7,1.9-.7h6.1v4.6h-4.9l4.7,14.2c0,.2,0,.4.1.7Z"/>
  </g>
  <g>
    <path class="cls-1" d="m68.5,135.1v2.6c0,.2,0,.3,0,.4,0,.1.2.2.4.2h1.2s.1,0,.2,0,.2,0,.2.1c0,0,.1.1.2.2s0,.2,0,.3v3.4c0,.3,0,.5-.2.7-.1.2-.3.3-.6.3h-1.1c-.2,0-.4-.1-.6-.3-.2-.2-.2-.4-.2-.6v-2.1h.4v1.7c0,.3,0,.5.1.6,0,.1.2.2.5.2h.8c.2,0,.3,0,.4-.2,0-.1.1-.3.1-.6v-2.8c0-.2,0-.3-.1-.4,0,0-.2-.1-.5-.1h-1c-.1,0-.3,0-.5-.2s-.2-.3-.2-.5v-3.1c0-.3,0-.5.2-.7s.3-.3.6-.3h1.1c.2,0,.4.1.6.3.2.2.2.4.2.6v2.1h-.4v-1.7c0-.3,0-.5-.1-.6,0-.1-.2-.2-.5-.2h-.8c-.2,0-.3,0-.4.2,0,.1-.1.3-.1.6Z"/>
    <path class="cls-1" d="m74.9,138.6h-.2c-.1,0-.2,0-.3,0-.1,0-.2,0-.3-.1,0,0-.2-.1-.2-.2,0,0,0-.2,0-.4v-4h.4v3.8c0,.4.2.6.5.6h.9c.3,0,.5-.2.5-.5v-3.8h.4v4c0,.1,0,.2,0,.3,0,0-.1.2-.2.2,0,0-.2.1-.3.1-.1,0-.2,0-.3,0h-.2v4.6h-.4v-4.6Z"/>
    <path class="cls-1" d="m79.9,135.1v2.6c0,.2,0,.3,0,.4,0,.1.2.2.4.2h1.2s.1,0,.2,0,.2,0,.2.1c0,0,.1.1.2.2s0,.2,0,.3v3.4c0,.3,0,.5-.2.7-.1.2-.3.3-.6.3h-1.1c-.2,0-.4-.1-.6-.3-.2-.2-.2-.4-.2-.6v-2.1h.4v1.7c0,.3,0,.5.1.6,0,.1.2.2.5.2h.8c.2,0,.3,0,.4-.2,0-.1.1-.3.1-.6v-2.8c0-.2,0-.3-.1-.4,0,0-.2-.1-.5-.1h-1c-.1,0-.3,0-.5-.2s-.2-.3-.2-.5v-3.1c0-.3,0-.5.2-.7s.3-.3.6-.3h1.1c.2,0,.4.1.6.3.2.2.2.4.2.6v2.1h-.4v-1.7c0-.3,0-.5-.1-.6,0-.1-.2-.2-.5-.2h-.8c-.2,0-.3,0-.4.2,0,.1-.1.3-.1.6Z"/>
    <path class="cls-1" d="m87.9,133.8v.4h-1.2v9h-.4v-9h-1.2v-.4h2.8Z"/>
    <path class="cls-1" d="m90.9,133.8h2.8v.4h-2.3v3.9h2.1v.4h-2.1v4.2h2.3v.4h-2.8v-9.4Z"/>
    <path class="cls-1" d="m99.3,143.2l-2.4-8.2v8.2h-.4v-9.4h.4l2.5,8.5,2.5-8.5h.4v9.4h-.4v-8.2l-2.3,8.2h-.3Z"/>
    <path class="cls-1" d="m105.8,135.1v2.6c0,.2,0,.3,0,.4,0,.1.2.2.4.2h1.2s.1,0,.2,0,.2,0,.2.1c0,0,.1.1.2.2s0,.2,0,.3v3.4c0,.3,0,.5-.2.7-.1.2-.3.3-.6.3h-1.1c-.2,0-.4-.1-.6-.3-.2-.2-.2-.4-.2-.6v-2.1h.4v1.7c0,.3,0,.5.1.6,0,.1.2.2.5.2h.8c.2,0,.3,0,.4-.2,0-.1.1-.3.1-.6v-2.8c0-.2,0-.3-.1-.4,0,0-.2-.1-.5-.1h-1c-.1,0-.3,0-.5-.2s-.2-.3-.2-.5v-3.1c0-.3,0-.5.2-.7s.3-.3.6-.3h1.1c.2,0,.4.1.6.3.2.2.2.4.2.6v2.1h-.4v-1.7c0-.3,0-.5-.1-.6,0-.1-.2-.2-.5-.2h-.8c-.2,0-.3,0-.4.2,0,.1-.1.3-.1.6Z"/>
    <path class="cls-1" d="m115.7,133.8h1.1c.2,0,.4,0,.6.3.2.2.4.4.5.6.2.4.3.9.4,1.6,0,.6.1,1.4.1,2.2v.2c0,.5,0,1,0,1.4,0,.4-.1.8-.2,1.1,0,.3-.2.6-.2.8s-.2.4-.2.5c-.1.2-.3.4-.4.5-.2.1-.3.2-.5.2h-1.1v-9.4Zm.9,9c.2,0,.4-.1.6-.3.2-.2.3-.4.4-.7.1-.2.2-.5.2-.8,0-.3,0-.5.1-.7,0-.2,0-.5,0-.9s0-.8,0-1.3,0-.5,0-.7,0-.5,0-.7,0-.4,0-.6,0-.3,0-.4c-.1-.6-.3-1-.6-1.3,0,0-.2-.1-.3-.2,0,0-.2,0-.3,0h-.5v8.5h.5Z"/>
    <path class="cls-1" d="m121.5,133.8h2.8v.4h-2.3v3.9h2.1v.4h-2.1v4.2h2.3v.4h-2.8v-9.4Z"/>
    <path class="cls-1" d="m128.9,142.3l1.3-8.5h.4l-1.5,9.4h-.5l-1.4-9.4h.4l1.3,8.5Z"/>
    <path class="cls-1" d="m133.6,133.8h2.8v.4h-2.3v3.9h2.1v.4h-2.1v4.2h2.3v.4h-2.8v-9.4Z"/>
    <path class="cls-1" d="m139.3,133.8h.4v9h2.4v.4h-2.8v-9.4Z"/>
    <path class="cls-1" d="m147.8,142.3c0,.2,0,.4-.2.6-.1.2-.3.3-.6.3h-1.2c-.3,0-.5-.1-.6-.3-.1-.2-.2-.4-.2-.7v-7.4c0-.3,0-.5.2-.7.1-.2.3-.3.6-.3h1.1c.2,0,.4.1.6.3.2.2.2.4.2.6v7.6Zm-2.2.3c0,.1.3.2.6.2h.7c.2,0,.4,0,.5-.2,0-.1.1-.3.1-.6v-6.9c0-.3,0-.5-.1-.6,0-.1-.2-.2-.5-.2h-.8c-.1,0-.3,0-.4.2s-.1.3-.1.6v6.9c0,.3,0,.5.1.6Z"/>
    <path class="cls-1" d="m150.7,133.8h1.5c0,0,.2,0,.3.2.1.1.3.3.4.5.1.2.2.5.3.8,0,.3.1.7.1,1.1s0,.8-.1,1.2-.2.6-.3.8c-.1.2-.3.4-.4.5-.1.1-.3.2-.4.2h-1.1v4.2h-.4v-9.4Zm1.3,4.8c.2,0,.4,0,.5-.2.1-.1.2-.3.3-.5s.1-.5.1-.7c0-.3,0-.5,0-.7,0-.2,0-.5,0-.8,0-.3-.1-.5-.2-.7s-.2-.4-.3-.5c-.1-.1-.3-.2-.5-.2h-.8v4.4h.9Z"/>
    <path class="cls-1" d="m156.4,133.8h2.8v.4h-2.3v3.9h2.1v.4h-2.1v4.2h2.3v.4h-2.8v-9.4Z"/>
    <path class="cls-1" d="m164.8,143.2l-2.4-8.2v8.2h-.4v-9.4h.4l2.5,8.5,2.5-8.5h.4v9.4h-.4v-8.2l-2.3,8.2h-.3Z"/>
    <path class="cls-1" d="m170.9,133.8h2.8v.4h-2.3v3.9h2.1v.4h-2.1v4.2h2.3v.4h-2.8v-9.4Z"/>
    <path class="cls-1" d="m176.6,143.2v-9.4h.5l1.9,7.8v-7.8h.4v9.4h-.4l-1.9-7.8v7.8h-.4Z"/>
    <path class="cls-1" d="m185.1,133.8v.4h-1.2v9h-.4v-9h-1.2v-.4h2.8Z"/>
  </g>
</svg>